<svg version="1.1" id="Layer_1" xmlns="http://www.w3.org/2000/svg" xmlns:xlink="http://www.w3.org/1999/xlink" x="0px" y="0px"
	 width="100%" viewBox="0 0 496 496" enable-background="new 0 0 496 496" xml:space="preserve">
<path fill="#000000" opacity="1.000000" stroke="none" 
	d="
M74.000046,307.127686 
	C67.834663,307.135071 62.147213,306.836517 56.510674,307.243378 
	C51.748928,307.587067 50.535706,305.744568 50.553745,301.258453 
	C50.693771,266.433136 50.632713,231.607056 50.640953,196.781204 
	C50.643578,185.687164 50.653362,185.682953 61.755886,185.682800 
	C190.894852,185.680984 320.033813,185.680649 449.172791,185.679474 
	C458.460327,185.679398 458.236786,185.684311 458.495667,194.646744 
	C459.361816,224.633392 458.572296,254.624176 458.931549,284.610016 
	C459.001251,290.428558 458.011017,296.234863 458.944458,302.067352 
	C459.397736,304.899780 458.095642,306.361115 454.996674,306.351318 
	C430.002533,306.272217 405.008118,306.280334 380.013824,306.233978 
	C378.001221,306.230225 375.649841,306.276062 375.908478,303.274780 
	C376.161133,300.342682 378.645905,300.805908 380.537201,300.802155 
	C402.199066,300.759064 423.861053,300.778046 445.523010,300.770538 
	C453.630951,300.767731 453.645660,300.755890 453.647614,292.508820 
	C453.655212,260.848969 453.550171,229.188431 453.758301,197.529922 
	C453.791473,192.479309 452.307648,191.008148 447.251312,191.013626 
	C318.612518,191.152924 189.973541,191.158859 61.334675,191.082932 
	C56.820808,191.080261 55.247837,192.415665 55.271072,197.069077 
	C55.435814,230.061096 55.428253,263.054657 55.273529,296.046753 
	C55.252899,300.445557 56.641026,301.786865 61.001324,301.752594 
	C83.495102,301.575714 105.991112,301.646362 128.486038,301.721741 
	C130.354675,301.727997 133.320740,300.571442 133.288635,304.224884 
	C133.259247,307.570679 130.520935,307.020691 128.486359,307.029083 
	C110.491081,307.102905 92.495514,307.104553 74.000046,307.127686 
z"/>
<path fill="#000000" opacity="1.000000" stroke="none" 
	d="
M159.108459,215.637604 
	C165.398209,214.560974 168.695618,217.170761 171.011169,222.495056 
	C173.641693,228.543533 176.554642,234.536880 180.947083,241.073776 
	C184.740356,233.855118 188.099823,227.446884 191.473495,221.046112 
	C194.659256,215.001862 195.562592,214.628342 202.710831,216.483429 
	C201.902542,220.662170 199.038376,223.843338 197.292740,227.538956 
	C196.015060,230.243958 194.647110,232.955338 192.941818,235.400528 
	C186.705399,244.342926 183.729370,254.045837 185.126907,265.010559 
	C185.493759,267.888733 185.413727,270.594635 180.928421,270.505219 
	C176.620880,270.419403 176.233398,267.945282 176.722961,264.963135 
	C179.607132,247.394012 167.506577,235.577484 160.583405,220.955734 
	C156.076630,223.897079 153.444977,227.719559 150.444092,231.121704 
	C141.513504,241.246323 141.576370,238.200455 149.764771,249.195312 
	C154.693832,255.813675 159.699127,262.375275 165.065033,269.485657 
	C159.659668,270.941406 155.753036,271.130890 152.539871,266.583893 
	C147.747772,259.802521 142.557617,253.302444 137.418015,246.526047 
	C133.179718,248.644608 131.013824,251.533936 131.178864,256.079285 
	C131.299683,259.406433 131.090286,262.745331 131.202911,266.073090 
	C131.313232,269.332306 129.816101,270.431732 126.668571,270.427246 
	C123.573952,270.422791 122.590668,269.035706 122.613152,266.180023 
	C122.686523,256.862457 122.481651,247.538849 122.754128,238.228424 
	C122.875023,234.097275 121.949791,231.771805 117.341988,232.290482 
	C114.776695,232.579239 113.583633,231.229736 112.677078,228.841080 
	C110.177582,222.255264 100.274902,219.697754 94.669662,223.993301 
	C90.656601,227.068649 90.733192,232.347504 94.936005,235.401077 
	C97.668251,237.386200 100.925018,238.265289 104.094528,239.279266 
	C108.385689,240.652069 112.676804,242.025467 116.249184,244.925949 
	C124.511459,251.634277 123.744698,262.920166 114.668549,268.398865 
	C103.837509,274.936890 87.069916,270.545166 82.746483,259.962036 
	C81.928032,257.958618 80.187943,255.233215 83.451447,254.060303 
	C86.087357,253.112961 88.799530,253.162857 90.278023,256.899048 
	C92.969467,263.700409 104.389587,266.455017 110.271011,262.049835 
	C114.717987,258.719055 114.263962,252.423920 108.976257,249.728027 
	C104.855415,247.627060 100.307518,246.361618 95.944260,244.738693 
	C90.461197,242.699265 85.654411,239.887833 83.791580,233.842346 
	C80.901772,224.464035 88.017509,215.747421 99.351204,214.735077 
	C108.183266,213.946182 112.686470,216.137192 121.535568,225.630127 
	C123.288498,223.807892 122.675873,221.538086 122.622337,219.539932 
	C122.536598,216.339828 124.140388,215.641418 126.941406,215.611603 
	C129.880493,215.580307 131.241150,216.655792 131.206345,219.663788 
	C131.133484,225.958847 131.184265,232.255341 131.184265,238.519745 
	C133.617538,239.026917 134.235031,237.330490 135.144806,236.339493 
	C140.326462,230.695236 145.568558,225.094727 150.484283,219.223282 
	C152.752014,216.514694 155.197769,215.167953 159.108459,215.637604 
z"/>
<path fill="#000000" opacity="1.000000" stroke="none" 
	d="
M362.093323,246.018158 
	C364.837585,253.213577 367.428284,260.055115 370.019012,266.896637 
	C370.350616,266.882019 370.682251,266.867371 371.013885,266.852753 
	C371.013885,261.033661 371.013489,255.214569 371.013977,249.395477 
	C371.014801,239.732330 371.037811,230.069107 371.004974,220.406082 
	C370.994232,217.238083 371.980377,215.510864 375.638824,215.584671 
	C379.468628,215.661957 379.357849,218.004013 379.355896,220.601410 
	C379.344604,235.596207 379.250458,250.591995 379.406891,265.585114 
	C379.446167,269.349426 378.073975,270.816589 374.441681,270.365814 
	C374.112946,270.325012 373.763794,270.291504 373.444489,270.355774 
	C365.650970,271.925507 360.748535,269.314880 359.301422,261.046753 
	C358.668915,257.433014 356.199097,255.995438 352.380402,256.304840 
	C348.407959,256.626709 344.380829,256.531921 340.393005,256.324127 
	C337.193115,256.157379 335.338684,257.452301 334.516205,260.450134 
	C334.428192,260.770966 334.322754,261.088562 334.202911,261.398987 
	C330.634644,270.641724 327.727295,272.147888 317.807343,270.381744 
	C315.007660,269.883270 314.884064,268.075806 314.872131,266.028473 
	C314.841064,260.697266 314.779449,255.363129 314.919861,250.035156 
	C315.008545,246.669495 313.789581,245.199478 310.255096,245.332581 
	C304.764771,245.539291 299.255554,245.535217 293.764771,245.334915 
	C290.213226,245.205353 289.051788,246.696960 289.160950,250.067535 
	C289.333435,255.393936 289.151764,260.731232 289.286713,266.059662 
	C289.365784,269.181519 288.329224,270.551361 284.958679,270.479126 
	C281.674103,270.408722 280.624695,269.115692 280.643585,265.974091 
	C280.735626,250.646835 280.743469,235.318436 280.649628,219.991226 
	C280.629974,216.786560 281.766418,215.582825 285.019104,215.587021 
	C288.458923,215.591461 289.287903,217.283981 289.237488,220.245163 
	C289.158081,224.908707 289.334564,229.578598 289.177338,234.238190 
	C289.070221,237.412598 290.208893,238.788589 293.502625,238.697113 
	C299.162842,238.539917 304.832855,238.563889 310.494537,238.694107 
	C313.789673,238.769897 314.929138,237.230713 314.874023,234.146164 
	C314.790649,229.482895 314.943298,224.815292 314.854034,220.152252 
	C314.795746,217.108582 315.785065,215.606110 319.154846,215.585983 
	C322.584564,215.565491 323.369659,217.131012 323.354156,220.154846 
	C323.277374,235.131699 323.319153,250.109177 324.084473,265.292664 
	C327.435883,256.590454 330.796539,247.891800 334.135559,239.184860 
	C336.520050,232.966934 338.856628,226.730576 341.252777,220.517166 
	C342.279419,217.854980 343.203125,215.428864 347.051361,215.527847 
	C350.709015,215.621918 351.343872,218.003784 352.293976,220.485840 
	C355.507019,228.879517 358.724213,237.271591 362.093323,246.018158 
M349.352509,233.400452 
	C348.513428,232.126526 348.530762,230.034424 345.714600,230.109253 
	C343.688263,235.295883 341.318787,240.518661 339.986115,246.147339 
	C339.528839,248.078812 339.928040,249.604782 342.217896,249.560379 
	C346.097443,249.485168 350.060913,250.316010 354.001556,248.907364 
	C353.939117,243.377563 350.779999,239.018021 349.352509,233.400452 
z"/>
<path fill="#000000" opacity="1.000000" stroke="none" 
	d="
M417.873474,227.029541 
	C417.879578,224.702835 417.936279,222.869827 417.883728,221.039932 
	C417.794006,217.914963 418.135345,215.554794 422.342102,215.580307 
	C426.447327,215.605240 426.337372,218.018219 426.332275,220.833237 
	C426.305817,235.486420 426.364502,250.139969 426.271851,264.792603 
	C426.259644,266.725555 427.362335,269.576477 424.229980,270.160431 
	C421.312561,270.704254 418.357880,270.919281 416.310913,267.673218 
	C411.073181,259.367249 405.637177,251.186203 400.270081,242.961975 
	C398.003571,239.488953 395.710968,236.032990 393.130280,232.113815 
	C391.944244,234.084595 392.212524,235.844604 392.206268,237.507553 
	C392.171204,246.832062 392.112427,256.157349 392.205048,265.480927 
	C392.236359,268.632782 391.558746,270.453522 387.819000,270.447357 
	C383.901459,270.440887 383.632935,268.258820 383.643219,265.292755 
	C383.694061,250.639709 383.621613,235.986099 383.715485,221.333481 
	C383.727936,219.390305 382.625397,216.527267 385.680481,215.892654 
	C388.777618,215.249329 391.807129,215.176697 393.975372,218.613647 
	C400.369537,228.749283 407.007202,238.731537 413.574799,248.757324 
	C414.635620,250.376694 415.376312,252.284180 417.874878,253.660278 
	C417.874878,244.667435 417.874878,236.096024 417.873474,227.029541 
z"/>
<path fill="#000000" opacity="1.000000" stroke="none" 
	d="
M236.471741,252.154022 
	C235.003616,243.354279 235.371719,235.094040 238.651306,227.201126 
	C242.236603,218.572540 250.619232,213.935699 260.498444,214.751709 
	C269.362976,215.483917 275.434937,220.531525 277.682953,228.991745 
	C278.209991,230.975098 279.019745,233.204163 276.158600,233.830475 
	C273.746796,234.358444 271.214050,234.558990 269.854401,231.442383 
	C266.559784,223.890350 263.035675,221.252914 257.309814,221.716354 
	C251.048721,222.223114 246.606049,226.088272 245.053467,233.676971 
	C243.618240,240.691956 243.334106,247.927475 245.711151,254.871796 
	C247.824509,261.045746 251.851959,263.980042 257.393555,263.986572 
	C264.276794,263.994690 267.104095,262.230560 269.587189,255.324951 
	C270.911560,251.641907 273.388092,252.132660 276.009308,252.654373 
	C279.614990,253.372025 277.957001,255.842438 277.409271,257.749634 
	C275.095947,265.804749 268.737915,270.764374 260.194702,271.291687 
	C249.997528,271.921112 242.004211,267.387939 238.403763,258.782471 
	C237.575958,256.803955 237.162415,254.652115 236.471741,252.154022 
z"/>
<path fill="#000000" opacity="1.000000" stroke="none" 
	d="
M201.764740,245.569702 
	C201.954544,244.991959 202.174072,244.542252 202.393372,244.542358 
	C208.096085,244.545288 212.681000,242.985977 213.863052,235.579636 
	C215.613525,242.775955 219.554016,245.946671 227.097214,244.801132 
	C220.290863,248.624969 219.109070,253.447433 222.007309,260.185913 
	C216.489487,254.809998 211.470581,255.664673 205.930786,260.127228 
	C209.111496,253.508163 207.084625,249.147308 201.764740,245.569702 
z"/>
<path fill="#000000" opacity="1.000000" stroke="none" 
	d="
M211.932434,302.940186 
	C209.528076,305.295776 211.667892,307.004944 213.014282,309.021698 
	C208.488174,310.594727 204.640823,299.547455 200.868118,310.401672 
	C198.731949,305.749146 198.900009,301.993195 200.376663,299.066406 
	C201.650650,296.541321 205.186752,297.707428 207.716248,297.983826 
	C210.285477,298.264587 212.669189,299.200867 211.932434,302.940186 
z"/>
<path fill="#000000" opacity="1.000000" stroke="none" 
	d="
M287.798035,299.225342 
	C288.754364,300.941040 289.488861,302.387512 290.225464,303.838074 
	C293.403839,303.026306 292.467865,298.804047 296.170502,298.103271 
	C296.380432,302.407104 294.224152,305.655060 291.992767,308.647522 
	C290.760132,310.300598 289.444550,308.989075 288.584290,307.520111 
	C287.779724,306.146118 287.927246,304.215576 286.239380,303.368561 
	C283.466339,304.364075 284.560974,310.250641 281.082092,308.772736 
	C277.514679,307.257233 276.889648,302.629517 275.829041,298.797668 
	C278.466980,298.113739 278.569702,300.040497 279.254608,301.152863 
	C279.931854,302.252747 280.111053,303.678375 281.392059,304.359253 
	C284.198059,303.375977 282.033691,296.768524 287.798035,299.225342 
z"/>
<path fill="#000000" opacity="1.000000" stroke="none" 
	d="
M320.278503,297.931030 
	C322.871216,297.945221 325.076691,297.780762 327.159393,298.210785 
	C329.593414,298.713348 331.247101,300.580963 329.934875,302.966736 
	C328.628113,305.342682 329.483826,306.930481 331.477509,308.846069 
	C326.726501,310.650146 323.027283,299.363403 318.821014,309.415161 
	C318.108124,304.991547 315.965912,301.288086 320.278503,297.931030 
z"/>
<path fill="#000000" opacity="1.000000" stroke="none" 
	d="
M157.034332,303.924438 
	C154.093826,303.331665 154.656052,305.887543 153.877350,307.193542 
	C152.373199,309.716187 150.771317,310.466217 149.315918,307.391602 
	C148.017868,304.649384 146.038422,302.079956 146.049469,298.376526 
	C149.802826,298.997955 149.018951,303.106781 151.489777,304.435028 
	C153.692093,302.974884 152.822388,298.671051 155.892136,298.510590 
	C159.332626,298.330719 158.525970,302.614532 160.574432,304.347137 
	C163.288559,303.439240 162.301666,299.380737 165.221115,298.616241 
	C165.965683,301.219391 163.750992,308.203857 161.693405,308.744629 
	C157.868134,309.750031 158.620850,305.795349 157.034332,303.924438 
z"/>
<path fill="#000000" opacity="1.000000" stroke="none" 
	d="
M361.433136,299.943085 
	C359.939301,303.730316 357.158844,298.561829 355.223511,301.290924 
	C356.370667,303.085083 358.550171,301.992859 360.015167,302.830261 
	C361.501007,303.679657 363.074097,304.495911 362.946228,306.454437 
	C362.821777,308.361145 361.392639,309.376190 359.648926,309.693573 
	C356.105072,310.338654 352.868683,310.106598 351.133942,306.015289 
	C353.963074,304.534088 355.880585,309.297760 358.519714,306.624695 
	C358.169098,305.065521 356.810760,305.269836 355.773193,304.989166 
	C353.590515,304.398682 351.232483,303.635345 351.822693,300.852661 
	C352.398560,298.137543 354.858032,297.597260 357.349731,297.768982 
	C358.873505,297.873993 360.265472,298.396942 361.433136,299.943085 
z"/>
<path fill="#000000" opacity="1.000000" stroke="none" 
	d="
M309.355469,309.550812 
	C307.682098,310.120331 306.394470,310.073456 305.086975,309.690369 
	C301.588806,308.665466 298.941803,306.842377 299.734558,302.713440 
	C300.437500,299.052307 305.679749,296.752411 309.883881,297.995087 
	C313.765533,299.142426 315.473694,302.376465 314.194519,306.054535 
	C313.448944,308.198334 311.821838,309.103882 309.355469,309.550812 
M310.050812,306.686920 
	C311.698700,305.599152 312.935944,304.295319 311.532135,302.270813 
	C309.981018,300.033905 307.679504,299.957916 305.364319,300.671692 
	C303.745422,301.170807 302.203491,302.166138 302.640869,304.171234 
	C303.125153,306.391357 305.032898,307.170837 307.073425,307.416351 
	C307.836914,307.508209 308.653778,307.156006 310.050812,306.686920 
z"/>
<path fill="#000000" opacity="1.000000" stroke="none" 
	d="
M257.107056,301.878418 
	C259.435181,303.158691 262.249725,300.788544 264.386078,303.544312 
	C262.530914,305.584106 258.841553,303.269501 257.500122,306.349091 
	C259.259705,309.003510 262.477844,306.015778 264.582886,308.650269 
	C260.911255,309.598907 256.916321,310.829102 254.545746,307.870422 
	C252.782593,305.669830 252.533157,301.105255 254.843216,298.997955 
	C257.529053,296.547821 261.479706,297.261322 265.041870,298.767151 
	C263.214722,303.199738 258.826599,298.543976 257.107056,301.878418 
z"/>
<path fill="#000000" opacity="1.000000" stroke="none" 
	d="
M179.626770,300.450043 
	C177.310059,301.483337 175.042175,299.781403 172.774551,301.379059 
	C174.773346,303.948059 178.050415,301.071014 180.057816,303.351562 
	C178.614578,305.648071 174.590530,303.240936 173.711853,306.590942 
	C175.512421,308.691162 178.375519,306.492767 180.432892,308.591278 
	C177.294250,310.003479 174.059494,309.852905 171.241806,309.083221 
	C167.816177,308.147522 170.002701,304.828094 169.695007,302.605347 
	C169.433014,300.712769 169.404755,298.603027 172.132462,297.908997 
	C176.026062,296.918365 179.636322,297.911560 179.626770,300.450043 
z"/>
<path fill="#000000" opacity="1.000000" stroke="none" 
	d="
M347.629028,302.444519 
	C347.109375,308.381989 340.726166,312.042999 336.136017,309.130829 
	C333.049866,307.172852 335.022186,303.628998 334.731262,300.818970 
	C334.480072,298.393066 336.310089,297.772949 338.358612,297.825165 
	C342.013641,297.918274 345.877655,297.612610 347.629028,302.444519 
M337.300293,303.577728 
	C337.257355,305.894409 338.054443,307.602570 340.686676,307.400085 
	C342.577240,307.254669 344.310394,306.488068 344.676453,304.307770 
	C344.962708,302.602509 344.092590,301.293823 342.524170,300.813232 
	C340.382355,300.156891 338.160767,299.846405 337.300293,303.577728 
z"/>
<path fill="#000000" opacity="1.000000" stroke="none" 
	d="
M187.898926,307.676117 
	C186.436752,308.097137 185.667099,309.793427 183.627914,308.403229 
	C185.161484,305.489563 186.647034,302.455078 188.339188,299.540558 
	C189.203384,298.052063 190.763397,297.395386 191.903290,299.106293 
	C193.845963,302.022156 195.707901,305.047699 196.865234,309.179474 
	C193.480911,308.374329 191.037964,306.577698 187.898926,307.676117 
z"/>
<path fill="#000000" opacity="1.000000" stroke="none" 
	d="
M247.312714,301.277161 
	C247.705719,299.891296 247.653275,298.538666 249.722809,298.657135 
	C250.727127,301.904144 250.642105,305.190521 249.737030,308.724548 
	C247.203339,308.363159 247.470612,304.640289 244.340530,305.025574 
	C241.728760,305.347046 240.771698,307.036713 238.942261,309.549957 
	C237.462662,305.375793 236.733719,302.059113 239.193710,297.672363 
	C240.705261,302.420197 243.184784,304.117371 247.312714,301.277161 
z"/>
<path fill="#000000" opacity="1.000000" stroke="none" 
	d="
M227.376678,301.988953 
	C226.614288,300.119019 224.327927,300.853882 223.698837,298.780029 
	C227.278366,297.039154 230.817001,297.478821 235.063812,298.932953 
	C229.881042,300.540649 230.537903,305.110748 229.659805,309.626862 
	C226.988586,306.938416 228.093567,304.417847 227.376678,301.988953 
z"/>
</svg>
